<svg xmlns="http://www.w3.org/2000/svg" xmlns:xlink="http://www.w3.org/1999/xlink" width="500" zoomAndPan="magnify" viewBox="0 0 375 374.999991" height="500" preserveAspectRatio="xMidYMid meet" version="1.0"><defs><clipPath id="3cef552557"><path d="M 190 120 L 249.242188 120 L 249.242188 259.902344 L 190 259.902344 Z M 190 120 " clip-rule="nonzero"/></clipPath><clipPath id="6d3036b345"><path d="M 125.492188 95.652344 L 185 95.652344 L 185 232 L 125.492188 232 Z M 125.492188 95.652344 " clip-rule="nonzero"/></clipPath></defs><rect x="-37.5" width="450" fill="#ffffff" y="-37.499999" height="449.999989" fill-opacity="1"/><rect x="-37.5" width="450" fill="#000000" y="-37.499999" height="449.999989" fill-opacity="1"/><path fill="#d9d9d9" d="M 221.871094 199.292969 L 214.199219 199.292969 C 214.984375 201.660156 216.566406 203.460938 218.929688 205.042969 C 213.53125 200.078125 214.65625 199.738281 221.871094 199.292969 Z M 221.871094 199.292969 " fill-opacity="1" fill-rule="evenodd"/><g clip-path="url(#3cef552557)"><path fill="#d9d9d9" d="M 190.304688 120.507812 L 190.304688 141.203125 C 190.410156 141.421875 190.445312 141.679688 190.304688 141.949219 L 190.304688 143.367188 C 191.664062 144.691406 194.078125 147.632812 191.886719 149.996094 C 192.566406 149.996094 193.574219 151.800781 191.886719 152.703125 C 195.378906 155.070312 210.042969 150.78125 213.648438 149.09375 C 217.816406 147.070312 220.863281 147.738281 224.363281 150.453125 C 224.703125 150.792969 225.148438 151.015625 225.488281 151.132812 L 225.488281 150.898438 C 225.605469 150.675781 225.828125 150.558594 225.945312 150.675781 C 226.167969 150.675781 226.167969 150.792969 226.285156 150.898438 L 226.402344 151.238281 C 226.847656 151.121094 226.964844 150.453125 226.402344 149.09375 C 228.992188 150.113281 228.652344 152.703125 226.964844 153.605469 L 232.832031 174.476562 L 239.484375 198.050781 C 239.484375 198.167969 239.484375 198.167969 239.484375 198.273438 C 237.90625 204.363281 232.492188 208.769531 225.839844 208.769531 C 219.304688 208.769531 213.777344 204.363281 212.3125 198.273438 L 212.3125 198.039062 L 218.847656 174.464844 L 224.714844 153.59375 C 223.253906 153.03125 222.46875 151.449219 220.992188 150.769531 C 219.070312 149.984375 217.386719 149.984375 215.242188 151.332031 C 209.269531 155.164062 199.113281 159.789062 191.898438 158.324219 C 191.898438 158.324219 192.460938 160.351562 190.773438 161.488281 C 191.335938 161.488281 192.460938 163.40625 190.316406 164.191406 L 190.316406 184.546875 C 190.878906 189.304688 191.570312 193.507812 192.121094 195.21875 C 192.121094 195.21875 193.140625 197.136719 191.101562 197.242188 C 192.34375 197.359375 193.585938 199.046875 191.324219 200.171875 C 191.324219 200.171875 198.996094 205.019531 191.207031 211.566406 C 192.332031 211.566406 193.914062 213.710938 191.207031 214.613281 L 201.128906 214.496094 L 201.128906 218.324219 L 195.71875 218.324219 L 195.71875 221.488281 L 191.886719 221.488281 C 191.886719 221.488281 189.964844 227.578125 210.488281 227.355469 L 210.488281 228.714844 L 220.300781 229.734375 L 220.300781 231.757812 L 190.304688 231.757812 L 190.304688 259.902344 L 249.5 259.972656 L 249.5 120.460938 Z M 190.304688 120.507812 " fill-opacity="1" fill-rule="evenodd"/></g><path fill="#d9d9d9" d="M 225.476562 153.828125 L 219.621094 174.699219 L 213.191406 197.828125 L 225.476562 197.828125 Z M 225.476562 153.828125 " fill-opacity="1" fill-rule="evenodd"/><path fill="#d9d9d9" d="M 232.128906 174.699219 L 226.273438 153.828125 L 226.273438 197.828125 L 238.558594 197.828125 Z M 232.128906 174.699219 " fill-opacity="1" fill-rule="evenodd"/><g clip-path="url(#6d3036b345)"><path fill="#ffbd59" d="M 154.5625 230.660156 L 154.5625 229.757812 L 164.480469 228.738281 L 164.480469 227.378906 C 185 227.601562 183.078125 221.511719 183.078125 221.511719 L 179.25 221.511719 L 179.25 218.347656 L 173.839844 218.347656 L 173.839844 214.519531 L 183.652344 214.636719 C 181.066406 213.734375 182.636719 211.589844 183.652344 211.589844 C 175.984375 205.042969 183.652344 200.195312 183.652344 200.195312 C 181.394531 199.070312 182.636719 197.371094 183.875 197.265625 C 181.734375 197.148438 182.859375 195.242188 182.859375 195.242188 C 183.382812 193.484375 184.085938 189.105469 184.660156 184.195312 L 184.660156 164.203125 C 182.519531 163.417969 183.535156 161.5 184.203125 161.5 C 182.402344 160.375 182.964844 158.335938 182.964844 158.335938 C 175.855469 159.800781 165.710938 155.171875 159.738281 151.34375 C 157.59375 149.984375 155.90625 149.984375 153.871094 150.78125 C 152.523438 151.460938 151.726562 153.042969 150.144531 153.605469 L 156.011719 174.476562 L 162.664062 198.050781 C 162.664062 198.167969 162.664062 198.167969 162.664062 198.273438 C 161.085938 204.363281 155.554688 208.769531 149.019531 208.769531 C 142.484375 208.769531 136.957031 204.363281 135.375 198.273438 L 135.375 198.039062 L 142.039062 174.476562 L 147.910156 153.605469 C 146.328125 152.703125 145.988281 150.101562 148.585938 149.09375 C 147.910156 150.453125 148.027344 151.121094 148.585938 151.238281 L 148.703125 150.898438 C 148.703125 150.675781 148.925781 150.558594 149.160156 150.675781 C 149.277344 150.675781 149.382812 150.792969 149.382812 150.898438 L 149.5 151.121094 C 149.839844 151.003906 150.179688 150.78125 150.625 150.441406 C 154.117188 147.738281 157.160156 147.058594 161.34375 149.082031 C 164.949219 150.769531 179.613281 155.070312 182.988281 152.691406 C 181.300781 151.789062 182.308594 149.984375 183.101562 149.984375 C 180.75 147.539062 183.359375 144.515625 184.683594 143.261719 L 184.683594 142.03125 C 184.484375 141.703125 184.519531 141.398438 184.683594 141.132812 L 184.683594 95.710938 L 125.492188 95.675781 L 125.492188 231.78125 L 154.585938 231.746094 L 154.585938 230.660156 Z M 154.5625 230.660156 " fill-opacity="1" fill-rule="evenodd"/></g><path fill="#ffbd59" d="M 161.777344 197.828125 L 155.347656 174.699219 L 149.488281 153.828125 L 149.488281 197.828125 Z M 161.777344 197.828125 " fill-opacity="1" fill-rule="evenodd"/><path fill="#ffbd59" d="M 183.417969 149.316406 C 183.324219 148.101562 183.816406 146.671875 184.660156 145.066406 L 184.660156 144.738281 C 183.265625 146.167969 182.730469 147.738281 183.417969 149.316406 Z M 183.417969 149.316406 " fill-opacity="1" fill-rule="evenodd"/><path fill="#ffbd59" d="M 144.96875 199.292969 L 137.414062 199.292969 C 138.09375 201.660156 139.664062 203.460938 142.039062 205.042969 C 136.746094 200.078125 137.753906 199.738281 144.96875 199.292969 Z M 144.96875 199.292969 " fill-opacity="1" fill-rule="evenodd"/><path fill="#ffbd59" d="M 181.851562 207.644531 C 181.628906 205.277344 182.191406 203.359375 183.3125 201.660156 C 181.394531 203.242188 180.949219 205.265625 181.851562 207.644531 Z M 181.851562 207.644531 " fill-opacity="1" fill-rule="evenodd"/><path fill="#ffbd59" d="M 148.691406 153.828125 L 142.835938 174.699219 L 136.289062 197.828125 L 148.691406 197.828125 Z M 148.691406 153.828125 " fill-opacity="1" fill-rule="evenodd"/><path stroke-linecap="butt" transform="matrix(0.75, 0, 0, 0.75, 129.508371, 325.842283)" fill="none" stroke-linejoin="miter" d="M -0.000744928 2.001956 L 159.999266 2.001956 " stroke="#000000" stroke-width="4" stroke-opacity="1" stroke-miterlimit="4"/><path stroke-linecap="butt" transform="matrix(0.75, 0, 0, 0.75, 115.143777, 336.038942)" fill="none" stroke-linejoin="miter" d="M 0.00100575 2.000161 L 160.001016 2.000161 " stroke="#000000" stroke-width="4" stroke-opacity="1" stroke-miterlimit="4"/></svg>